<?xml version="1.0" encoding="iso-8859-1"?>
<!-- Generator: Adobe Illustrator 19.0.0, SVG Export Plug-In . SVG Version: 6.00 Build 0)  -->
<svg version="1.1" id="Layer_1" xmlns="http://www.w3.org/2000/svg" xmlns:xlink="http://www.w3.org/1999/xlink" x="0px" y="0px"
	 viewBox="0 0 375 125" style="enable-background:new 0 0 612 792;" xml:space="preserve">
<style type="text/css">
</style>
<path style="fill:none;stroke:#000000;stroke-width:0.747;stroke-miterlimit:3.864;" d="M200.711,89.556
	c0.414,0,0.749,0.346,0.749,0.774v1c0,0.427-0.335,0.773-0.749,0.773L80.092,92.1c-0.413,0-0.751-0.345-0.751-0.772v-1
	c0-0.429,0.338-0.774,0.751-0.774L200.711,89.556z"/>
<path style="fill:none;stroke:#000000;stroke-width:0.747;stroke-miterlimit:3.864;" d="M25.392,88.047v1.159l1.968,7.835
	l-1.25,5.031c1.845,0.162,14.285,0.127,13.223,7.286h209.231c3.313,0,7.222,0.111,9.941-3.256c1.249-1.547,0.655-3.45-1.064-3.45
	c-1.5,0-3.126,0.064-4.468,0.194c-0.878,0.083-0.804-0.781-0.502-1.258c0.468-0.741,17.754-13.091,17.754-13.091v-0.45H25.392z"/>
<path style="fill:none;stroke:#000000;stroke-width:0.747;stroke-miterlimit:3.864;" d="M68.723,89.679h7.412
	c0.386,0,0.699,0.312,0.699,0.698v0.901c0,0.387-0.313,0.701-0.699,0.701h-7.412c-0.383,0-0.698-0.314-0.698-0.701v-0.901
	C68.025,89.991,68.34,89.679,68.723,89.679z"/>
<path style="fill:none;stroke:#000000;stroke-width:0.747;stroke-miterlimit:3.864;" d="M59.247,89.679h7.414
	c0.385,0,0.698,0.312,0.698,0.698v0.901c0,0.387-0.313,0.701-0.698,0.701h-7.414c-0.384,0-0.698-0.314-0.698-0.701v-0.901
	C58.549,89.991,58.863,89.679,59.247,89.679z"/>
<path style="fill:none;stroke:#000000;stroke-width:0.747;stroke-miterlimit:3.864;" d="M49.77,89.679h7.412
	c0.387,0,0.699,0.312,0.699,0.698v0.901c0,0.387-0.312,0.701-0.699,0.701H49.77c-0.384,0-0.698-0.314-0.698-0.701v-0.901
	C49.072,89.991,49.386,89.679,49.77,89.679z"/>
<path style="fill:none;stroke:#000000;stroke-width:0.747;stroke-miterlimit:3.864;" d="M40.294,89.679h7.411
	c0.389,0,0.701,0.312,0.701,0.698v0.901c0,0.387-0.312,0.701-0.701,0.701h-7.411c-0.384,0-0.698-0.314-0.698-0.701v-0.901
	C39.596,89.991,39.91,89.679,40.294,89.679z"/>
<path style="fill:none;stroke:#000000;stroke-width:0.747;stroke-miterlimit:3.864;" d="M30.818,89.679h7.412
	c0.387,0,0.699,0.312,0.699,0.698v0.901c0,0.387-0.312,0.701-0.699,0.701h-7.412c-0.386,0-0.698-0.314-0.698-0.701v-0.901
	C30.119,89.991,30.431,89.679,30.818,89.679z"/>
<line style="fill:none;stroke:#000000;stroke-width:0.747;stroke-miterlimit:3.864;" x1="230.748" y1="74.642" x2="57.839" y2="74.642"/>
<line style="fill:none;stroke:#000000;stroke-width:0.747;stroke-miterlimit:3.864;" x1="32.984" y1="76.675" x2="238.311" y2="76.675"/>
<rect x="245.656" y="96.107" style="fill:none;stroke:#000000;stroke-width:0.758;stroke-miterlimit:3.864;" width="2.613" height="1.741"/>
<line style="fill:none;stroke:#000000;stroke-width:0.299;stroke-miterlimit:3.864;" x1="99.284" y1="58.853" x2="91.156" y2="58.853"/>
<line style="fill:none;stroke:#000000;stroke-width:0.299;stroke-miterlimit:3.864;" x1="99.284" y1="59.461" x2="91.156" y2="59.461"/>
<line style="fill:none;stroke:#000000;stroke-width:0.299;stroke-miterlimit:3.864;" x1="99.284" y1="60.069" x2="91.156" y2="60.069"/>
<line style="fill:none;stroke:#000000;stroke-width:0.299;stroke-miterlimit:3.864;" x1="94.355" y1="60.678" x2="91.155" y2="60.678"/>
<line style="fill:none;stroke:#000000;stroke-width:0.299;stroke-miterlimit:3.864;" x1="99.284" y1="60.678" x2="98.721" y2="60.678"/>
<line style="fill:none;stroke:#000000;stroke-width:0.299;stroke-miterlimit:3.864;" x1="94.186" y1="61.287" x2="91.154" y2="61.287"/>
<line style="fill:none;stroke:#000000;stroke-width:0.299;stroke-miterlimit:3.864;" x1="99.284" y1="61.287" x2="98.721" y2="61.287"/>
<line style="fill:none;stroke:#000000;stroke-width:0.299;stroke-miterlimit:3.864;" x1="94.019" y1="61.895" x2="91.156" y2="61.895"/>
<line style="fill:none;stroke:#000000;stroke-width:0.299;stroke-miterlimit:3.864;" x1="99.284" y1="61.895" x2="98.721" y2="61.895"/>
<line style="fill:none;stroke:#000000;stroke-width:0.299;stroke-miterlimit:3.864;" x1="93.85" y1="62.504" x2="91.155" y2="62.504"/>
<line style="fill:none;stroke:#000000;stroke-width:0.299;stroke-miterlimit:3.864;" x1="99.284" y1="62.504" x2="98.721" y2="62.504"/>
<line style="fill:none;stroke:#000000;stroke-width:0.299;stroke-miterlimit:3.864;" x1="93.681" y1="63.112" x2="91.155" y2="63.112"/>
<line style="fill:none;stroke:#000000;stroke-width:0.299;stroke-miterlimit:3.864;" x1="99.284" y1="63.112" x2="98.721" y2="63.112"/>
<line style="fill:none;stroke:#000000;stroke-width:0.299;stroke-miterlimit:3.864;" x1="93.512" y1="63.721" x2="91.154" y2="63.721"/>
<line style="fill:none;stroke:#000000;stroke-width:0.299;stroke-miterlimit:3.864;" x1="99.284" y1="63.721" x2="98.721" y2="63.721"/>
<line style="fill:none;stroke:#000000;stroke-width:0.299;stroke-miterlimit:3.864;" x1="93.344" y1="64.329" x2="91.156" y2="64.329"/>
<line style="fill:none;stroke:#000000;stroke-width:0.299;stroke-miterlimit:3.864;" x1="99.284" y1="64.329" x2="98.721" y2="64.329"/>
<line style="fill:none;stroke:#000000;stroke-width:0.299;stroke-miterlimit:3.864;" x1="93.175" y1="64.94" x2="91.155" y2="64.94"/>
<line style="fill:none;stroke:#000000;stroke-width:0.299;stroke-miterlimit:3.864;" x1="99.284" y1="64.94" x2="98.721" y2="64.94"/>
<line style="fill:none;stroke:#000000;stroke-width:0.299;stroke-miterlimit:3.864;" x1="93.006" y1="65.549" x2="91.155" y2="65.549"/>
<line style="fill:none;stroke:#000000;stroke-width:0.299;stroke-miterlimit:3.864;" x1="99.284" y1="65.549" x2="98.721" y2="65.549"/>
<line style="fill:none;stroke:#000000;stroke-width:0.299;stroke-miterlimit:3.864;" x1="92.838" y1="66.157" x2="91.154" y2="66.157"/>
<line style="fill:none;stroke:#000000;stroke-width:0.299;stroke-miterlimit:3.864;" x1="99.284" y1="66.157" x2="98.721" y2="66.157"/>
<line style="fill:none;stroke:#000000;stroke-width:0.299;stroke-miterlimit:3.864;" x1="92.671" y1="66.766" x2="91.156" y2="66.766"/>
<line style="fill:none;stroke:#000000;stroke-width:0.299;stroke-miterlimit:3.864;" x1="99.284" y1="66.766" x2="98.721" y2="66.766"/>
<line style="fill:none;stroke:#000000;stroke-width:0.299;stroke-miterlimit:3.864;" x1="92.502" y1="67.374" x2="91.155" y2="67.374"/>
<line style="fill:none;stroke:#000000;stroke-width:0.299;stroke-miterlimit:3.864;" x1="99.284" y1="67.374" x2="98.721" y2="67.374"/>
<line style="fill:none;stroke:#000000;stroke-width:0.299;stroke-miterlimit:3.864;" x1="92.333" y1="67.983" x2="91.155" y2="67.983"/>
<line style="fill:none;stroke:#000000;stroke-width:0.299;stroke-miterlimit:3.864;" x1="99.284" y1="67.983" x2="98.721" y2="67.983"/>
<line style="fill:none;stroke:#000000;stroke-width:0.299;stroke-miterlimit:3.864;" x1="92.164" y1="68.59" x2="91.154" y2="68.59"/>
<line style="fill:none;stroke:#000000;stroke-width:0.299;stroke-miterlimit:3.864;" x1="99.284" y1="68.59" x2="98.721" y2="68.59"/>
<path style="fill:none;stroke:#000000;stroke-width:0.299;stroke-miterlimit:3.864;" d="M93.813,64.754
	c0-1.088,0.644-1.968,1.436-1.968c0.795,0,1.439,0.88,1.439,1.968c0,1.084-0.644,1.966-1.439,1.966
	C94.457,66.72,93.813,65.838,93.813,64.754z"/>
<line style="fill:none;stroke:#000000;stroke-width:0.299;stroke-miterlimit:3.864;" x1="103.721" y1="58.853" x2="111.847" y2="58.853"/>
<line style="fill:none;stroke:#000000;stroke-width:0.299;stroke-miterlimit:3.864;" x1="103.721" y1="59.461" x2="111.847" y2="59.461"/>
<line style="fill:none;stroke:#000000;stroke-width:0.299;stroke-miterlimit:3.864;" x1="103.721" y1="60.069" x2="111.847" y2="60.069"/>
<line style="fill:none;stroke:#000000;stroke-width:0.299;stroke-miterlimit:3.864;" x1="108.647" y1="60.678" x2="111.847" y2="60.678"/>
<line style="fill:none;stroke:#000000;stroke-width:0.299;stroke-miterlimit:3.864;" x1="103.721" y1="60.678" x2="104.284" y2="60.678"/>
<line style="fill:none;stroke:#000000;stroke-width:0.299;stroke-miterlimit:3.864;" x1="108.815" y1="61.287" x2="111.848" y2="61.287"/>
<line style="fill:none;stroke:#000000;stroke-width:0.299;stroke-miterlimit:3.864;" x1="103.721" y1="61.287" x2="104.284" y2="61.287"/>
<line style="fill:none;stroke:#000000;stroke-width:0.299;stroke-miterlimit:3.864;" x1="108.984" y1="61.895" x2="111.847" y2="61.895"/>
<line style="fill:none;stroke:#000000;stroke-width:0.299;stroke-miterlimit:3.864;" x1="103.721" y1="61.895" x2="104.284" y2="61.895"/>
<line style="fill:none;stroke:#000000;stroke-width:0.299;stroke-miterlimit:3.864;" x1="109.152" y1="62.504" x2="111.847" y2="62.504"/>
<line style="fill:none;stroke:#000000;stroke-width:0.299;stroke-miterlimit:3.864;" x1="103.721" y1="62.504" x2="104.284" y2="62.504"/>
<line style="fill:none;stroke:#000000;stroke-width:0.299;stroke-miterlimit:3.864;" x1="109.32" y1="63.112" x2="111.847" y2="63.112"/>
<line style="fill:none;stroke:#000000;stroke-width:0.299;stroke-miterlimit:3.864;" x1="103.721" y1="63.112" x2="104.284" y2="63.112"/>
<line style="fill:none;stroke:#000000;stroke-width:0.299;stroke-miterlimit:3.864;" x1="109.489" y1="63.721" x2="111.848" y2="63.721"/>
<line style="fill:none;stroke:#000000;stroke-width:0.299;stroke-miterlimit:3.864;" x1="103.721" y1="63.721" x2="104.284" y2="63.721"/>
<line style="fill:none;stroke:#000000;stroke-width:0.299;stroke-miterlimit:3.864;" x1="109.658" y1="64.329" x2="111.846" y2="64.329"/>
<line style="fill:none;stroke:#000000;stroke-width:0.299;stroke-miterlimit:3.864;" x1="103.721" y1="64.329" x2="104.284" y2="64.329"/>
<line style="fill:none;stroke:#000000;stroke-width:0.299;stroke-miterlimit:3.864;" x1="109.826" y1="64.94" x2="111.847" y2="64.94"/>
<line style="fill:none;stroke:#000000;stroke-width:0.299;stroke-miterlimit:3.864;" x1="103.721" y1="64.94" x2="104.284" y2="64.94"/>
<line style="fill:none;stroke:#000000;stroke-width:0.299;stroke-miterlimit:3.864;" x1="109.995" y1="65.549" x2="111.847" y2="65.549"/>
<line style="fill:none;stroke:#000000;stroke-width:0.299;stroke-miterlimit:3.864;" x1="103.721" y1="65.549" x2="104.284" y2="65.549"/>
<line style="fill:none;stroke:#000000;stroke-width:0.299;stroke-miterlimit:3.864;" x1="110.164" y1="66.157" x2="111.848" y2="66.157"/>
<line style="fill:none;stroke:#000000;stroke-width:0.299;stroke-miterlimit:3.864;" x1="103.721" y1="66.157" x2="104.284" y2="66.157"/>
<line style="fill:none;stroke:#000000;stroke-width:0.299;stroke-miterlimit:3.864;" x1="110.333" y1="66.766" x2="111.846" y2="66.766"/>
<line style="fill:none;stroke:#000000;stroke-width:0.299;stroke-miterlimit:3.864;" x1="103.721" y1="66.766" x2="104.284" y2="66.766"/>
<line style="fill:none;stroke:#000000;stroke-width:0.299;stroke-miterlimit:3.864;" x1="110.502" y1="67.374" x2="111.847" y2="67.374"/>
<line style="fill:none;stroke:#000000;stroke-width:0.299;stroke-miterlimit:3.864;" x1="103.721" y1="67.374" x2="104.284" y2="67.374"/>
<line style="fill:none;stroke:#000000;stroke-width:0.299;stroke-miterlimit:3.864;" x1="110.669" y1="67.983" x2="111.847" y2="67.983"/>
<line style="fill:none;stroke:#000000;stroke-width:0.299;stroke-miterlimit:3.864;" x1="103.721" y1="67.983" x2="104.284" y2="67.983"/>
<line style="fill:none;stroke:#000000;stroke-width:0.299;stroke-miterlimit:3.864;" x1="110.838" y1="68.59" x2="111.848" y2="68.59"/>
<line style="fill:none;stroke:#000000;stroke-width:0.299;stroke-miterlimit:3.864;" x1="103.721" y1="68.59" x2="104.284" y2="68.59"/>
<path style="fill:none;stroke:#000000;stroke-width:0.299;stroke-miterlimit:3.864;" d="M106.315,64.754
	c0-1.088,0.645-1.968,1.436-1.968c0.795,0,1.439,0.88,1.439,1.968c0,1.084-0.644,1.966-1.439,1.966
	C106.96,66.72,106.315,65.838,106.315,64.754z"/>
<polyline style="fill:none;stroke:#000000;stroke-width:0.498;stroke-miterlimit:3.864;" points="57.84,74.642 61.057,72.676
	80.967,72.676 82.342,71.612 128.102,71.612 "/>
<line style="fill:none;stroke:#000000;stroke-width:0.498;stroke-miterlimit:3.864;" x1="230.748" y1="73.418" x2="230.748" y2="74.643"/>
<line style="fill:none;stroke:#000000;stroke-width:0.498;stroke-miterlimit:3.864;" x1="59.901" y1="73.418" x2="179.417" y2="73.418"/>
<polyline style="fill:none;stroke:#000000;stroke-width:0.747;stroke-miterlimit:3.864;" points="229.717,71.936 180.991,71.936
	179.417,72.642 179.417,73.418 "/>
<polyline style="fill:none;stroke:#000000;stroke-width:0.747;stroke-miterlimit:3.864;" points="182.024,71.936 182.024,68.646
	213.7,68.646 214.246,69.549 "/>
<polyline style="fill:none;stroke:#000000;stroke-width:0.248;stroke-miterlimit:3.864;" points="211.962,68.615 210.993,66.679
	204.148,66.679 204.148,68.679 "/>
<line style="fill:none;stroke:#000000;stroke-width:0.299;stroke-miterlimit:3.864;" x1="203.525" y1="63.46" x2="206.587" y2="63.46"/>
<rect x="128.166" y="71.033" style="fill:none;stroke:#000000;stroke-width:0.498;stroke-miterlimit:3.864;" width="9.939" height="2.385"/>
<polyline style="fill:none;stroke:#000000;stroke-width:0.498;stroke-miterlimit:3.864;" points="144.417,73.404 144.417,71.065
	66.058,71.065 66.058,72.645 "/>
<rect x="66.058" y="70.289" style="fill:none;stroke:#000000;stroke-width:0.498;stroke-miterlimit:3.864;" width="8.689" height="0.775"/>
<rect x="74.747" y="69.161" style="fill:none;stroke:#000000;stroke-width:0.747;stroke-miterlimit:3.864;" width="39.133" height="1.903"/>
<rect x="113.879" y="70.289" style="fill:none;stroke:#000000;stroke-width:0.498;stroke-miterlimit:3.864;" width="11.753" height="0.775"/>
<rect x="125.632" y="69.564" style="fill:none;stroke:#000000;stroke-width:0.498;stroke-miterlimit:3.864;" width="5.47" height="1.5"/>
<rect x="131.102" y="70.289" style="fill:none;stroke:#000000;stroke-width:0.498;stroke-miterlimit:3.864;" width="13.314" height="0.775"/>
<rect x="144.416" y="72.642" style="fill:none;stroke:#000000;stroke-width:0.498;stroke-miterlimit:3.864;" width="35" height="0.775"/>
<path style="fill:none;stroke:#000000;stroke-width:0.498;stroke-miterlimit:3.864;" d="M131.6,69.18
	c0-0.68,0.663-1.231,1.479-1.231c0.817,0,1.478,0.551,1.478,1.231c0,0.464-0.309,0.867-0.762,1.079h-1.433
	C131.909,70.047,131.6,69.644,131.6,69.18z"/>
<polyline style="fill:none;stroke:#000000;stroke-width:0.248;stroke-miterlimit:3.864;" points="136.385,70.289 136.26,62.295
	136.118,62.295 135.979,70.259 "/>
<line style="fill:none;stroke:#000000;stroke-width:0.383;stroke-miterlimit:3.864;" x1="217.55" y1="70.742" x2="274.624" y2="21.422"/>
<path d="M216.961,70.742c0-0.326,0.265-0.589,0.589-0.589c0.325,0,0.589,0.263,0.589,0.589c0,0.325-0.264,0.588-0.589,0.588
	C217.226,71.33,216.961,71.067,216.961,70.742"/>
<line style="fill:none;stroke:#000000;stroke-width:0.383;stroke-miterlimit:3.864;" x1="217.55" y1="73.206" x2="274.751" y2="30.075"/>
<path d="M216.9,73.206c0-0.324,0.265-0.589,0.589-0.589c0.325,0,0.589,0.265,0.589,0.589c0,0.326-0.264,0.59-0.589,0.59
	C217.165,73.796,216.9,73.532,216.9,73.206"/>
<line style="fill:none;stroke:#000000;stroke-width:0.383;stroke-miterlimit:3.864;" x1="217.55" y1="75.685" x2="274.751" y2="38.497"/>
<path d="M216.961,75.685c0-0.324,0.265-0.589,0.589-0.589c0.325,0,0.589,0.265,0.589,0.589c0,0.324-0.264,0.589-0.589,0.589
	C217.226,76.274,216.961,76.009,216.961,75.685"/>
<line style="fill:none;stroke:#000000;stroke-width:0.383;stroke-miterlimit:3.864;" x1="217.55" y1="77.734" x2="274.751" y2="47.427"/>
<path d="M216.961,77.734c0-0.326,0.265-0.589,0.589-0.589c0.325,0,0.589,0.263,0.589,0.589c0,0.324-0.264,0.586-0.589,0.586
	C217.226,78.32,216.961,78.058,216.961,77.734"/>
<line style="fill:none;stroke:#000000;stroke-width:0.383;stroke-miterlimit:3.864;" x1="217.55" y1="80.01" x2="274.751" y2="55.85"/>
<path d="M216.961,80.01c0-0.326,0.265-0.59,0.589-0.59c0.325,0,0.589,0.264,0.589,0.59c0,0.324-0.264,0.586-0.589,0.586
	C217.226,80.596,216.961,80.334,216.961,80.01"/>
<line style="fill:none;stroke:#000000;stroke-width:0.383;stroke-miterlimit:3.864;" x1="217.55" y1="82.412" x2="274.751" y2="64.656"/>
<path d="M216.961,82.412c0-0.326,0.265-0.589,0.589-0.589c0.325,0,0.589,0.263,0.589,0.589c0,0.325-0.264,0.588-0.589,0.588
	C217.226,83,216.961,82.737,216.961,82.412"/>
<line style="fill:none;stroke:#000000;stroke-width:0.383;stroke-miterlimit:3.864;" x1="217.55" y1="85.004" x2="274.751" y2="73.205"/>
<path d="M216.961,85.004c0-0.326,0.265-0.589,0.589-0.589c0.325,0,0.589,0.263,0.589,0.589c0,0.324-0.264,0.586-0.589,0.586
	C217.226,85.59,216.961,85.328,216.961,85.004"/>
<line style="fill:none;stroke:#000000;stroke-width:0.383;stroke-miterlimit:3.864;" x1="217.55" y1="87.154" x2="274.751" y2="81.881"/>
<path d="M216.961,87.154c0-0.326,0.265-0.589,0.589-0.589c0.325,0,0.589,0.263,0.589,0.589c0,0.324-0.264,0.586-0.589,0.586
	C217.226,87.74,216.961,87.478,216.961,87.154"/>
<line style="fill:none;stroke:#000000;stroke-width:0.383;stroke-miterlimit:3.864;" x1="217.55" y1="90.694" x2="274.751" y2="90.304"/>
<path d="M216.961,90.694c0-0.326,0.265-0.589,0.589-0.589c0.325,0,0.589,0.263,0.589,0.589c0,0.324-0.264,0.586-0.589,0.586
	C217.226,91.28,216.961,91.018,216.961,90.694"/>
<line style="fill:none;stroke:#000000;stroke-width:0.383;stroke-miterlimit:3.864;" x1="217.55" y1="94.74" x2="274.496" y2="99.259"/>
<path d="M216.961,94.74c0-0.326,0.265-0.589,0.589-0.589c0.325,0,0.589,0.263,0.589,0.589c0,0.324-0.264,0.588-0.589,0.588
	C217.226,95.328,216.961,95.064,216.961,94.74"/>
<line style="fill:none;stroke:#000000;stroke-width:0.383;stroke-miterlimit:3.864;" x1="217.55" y1="97.269" x2="274.368" y2="107.042"/>
<path d="M216.961,97.269c0-0.326,0.265-0.589,0.589-0.589c0.325,0,0.589,0.263,0.589,0.589c0,0.324-0.264,0.586-0.589,0.586
	C217.226,97.855,216.961,97.593,216.961,97.269"/>
<line style="fill:none;stroke:#000000;stroke-width:0.299;stroke-miterlimit:3.864;" x1="204.148" y1="66.038" x2="206.587" y2="66.038"/>
<line style="fill:none;stroke:#000000;stroke-width:0.299;stroke-miterlimit:3.864;" x1="204.148" y1="65.384" x2="206.587" y2="65.384"/>
<line style="fill:none;stroke:#000000;stroke-width:0.299;stroke-miterlimit:3.864;" x1="204.148" y1="64.73" x2="206.587" y2="64.73"/>
<line style="fill:none;stroke:#000000;stroke-width:0.299;stroke-miterlimit:3.864;" x1="204.148" y1="64.076" x2="206.587" y2="64.076"/>
<polyline style="fill:none;stroke:#000000;stroke-width:0.747;stroke-miterlimit:3.864;" points="25.567,88.047 25.567,86.723
	24.73,86.723 25.909,85.982 25.909,85.274 27.532,85.274 27.532,84.371 26.092,84.371 27.333,83.596 27.333,82.887 28.979,82.887
	28.979,81.984 28.068,81.984 29.261,81.211 29.261,80.502 31.212,80.502 31.212,79.599 30.391,79.599 31.587,78.825 31.587,78.115
	32.739,78.083 32.739,76.707 33.156,76.707 31.961,75.965 31.961,75.25 56.893,75.25 61.056,72.676 "/>
<line style="fill:none;stroke:#000000;stroke-width:0.747;stroke-miterlimit:3.864;" x1="31.587" y1="78.825" x2="237.565" y2="78.825"/>
<line style="fill:none;stroke:#000000;stroke-width:0.747;stroke-miterlimit:3.864;" x1="29.261" y1="81.228" x2="240.752" y2="81.228"/>
<line style="fill:none;stroke:#000000;stroke-width:0.747;stroke-miterlimit:3.864;" x1="27.333" y1="83.629" x2="243.939" y2="83.629"/>
<text transform="matrix(1 0 0 1 306 396)" style="font-family:'MyriadPro-Regular'; font-size:12px;">name=&quot;cabin_room&quot;</text>
<line style="fill:none;stroke:#000000;stroke-width:0.747;stroke-miterlimit:3.864;" x1="25.91" y1="86.032" x2="247.247" y2="86.032"/>
<polyline style="fill:none;stroke:#000000;stroke-width:0.747;stroke-miterlimit:3.864;" points="204.148,68.678 204.148,66.678
	210.993,66.678 211.962,68.647 213.682,68.647 214.246,69.581 224.934,69.581 226.908,70.974 228.691,70.974 231.124,73.095
	230.748,73.418 230.748,74.642 230.248,75.449 234.626,75.449 238.626,76.03 237.593,78.826 250.006,87.944 "/>
<line style="fill:none;stroke:#000000;stroke-width:0.747;stroke-miterlimit:3.864;" x1="26.618" y1="93.476" x2="263.26" y2="93.476"/>
<line style="fill:none;stroke:#000000;stroke-width:0.747;stroke-miterlimit:3.864;" x1="27.108" y1="96.005" x2="259.634" y2="96.005"/>
<polyline style="fill:none;stroke:#000000;stroke-width:0.253;stroke-miterlimit:3.864;" points="268.128,88.047 268.128,82.436
	268.066,82.436 267.999,84.563 267.339,88.047 "/>
<line style="fill:none;stroke:#000000;stroke-width:0.747;stroke-miterlimit:3.864;" x1="26.083" y1="101.795" x2="252.354" y2="101.795"/>
<line style="fill:none;stroke:#000000;stroke-width:0.746;stroke-miterlimit:3.864;" x1="27.325" y1="98.673" x2="256.573" y2="98.673"/>
<rect x="277.682" y="17.629" style="fill:#FFFFFF;" width="69.754" height="96.593"/>
<text transform="matrix(1 0 0 1 277.6827 23.103)"><tspan x="0" y="0" style="font-family:'UniversLTStd-LightCn'; font-size:7.56px;">Sports</tspan><tspan x="20.147" y="0" style="font-family:'UniversLTStd-LightCn'; font-size:7.56px;"> </tspan><tspan x="21.916" y="0" style="font-family:'UniversLTStd-LightCn'; font-size:7.56px;">Deck</tspan></text>
<text transform="matrix(1 0 0 1 277.6827 31.7446)"><tspan x="0" y="0" style="font-family:'UniversLTStd-LightCn'; font-size:7.56px;">Observation</tspan><tspan x="38.661" y="0" style="font-family:'UniversLTStd-LightCn'; font-size:7.56px;"> </tspan><tspan x="40.43" y="0" style="font-family:'UniversLTStd-LightCn'; font-size:7.56px;">Deck</tspan></text>
<text transform="matrix(1 0 0 1 277.6827 40.3853)"><tspan x="0" y="0" style="font-family:'UniversLTStd-LightCn'; font-size:7.56px;">Lido</tspan><tspan x="13.751" y="0" style="font-family:'UniversLTStd-LightCn'; font-size:7.56px;"> </tspan><tspan x="15.521" y="0" style="font-family:'UniversLTStd-LightCn'; font-size:7.56px;">Deck</tspan></text>
<text transform="matrix(1 0 0 1 277.6827 49.0269)"><tspan x="0" y="0" style="font-family:'UniversLTStd-LightCn'; font-size:7.56px;">Navigation</tspan><tspan x="34.511" y="0" style="font-family:'UniversLTStd-LightCn'; font-size:7.56px;"> </tspan><tspan x="36.279" y="0" style="font-family:'UniversLTStd-LightCn'; font-size:7.56px;">Deck</tspan></text>
<text transform="matrix(1 0 0 1 277.6827 57.6675)"><tspan x="0" y="0" style="font-family:'UniversLTStd-LightCn'; font-size:7.56px;">Rotterdam</tspan><tspan x="33.694" y="0" style="font-family:'UniversLTStd-LightCn'; font-size:7.56px;"> </tspan><tspan x="35.464" y="0" style="font-family:'UniversLTStd-LightCn'; font-size:7.56px;">Deck</tspan></text>
<text transform="matrix(1 0 0 1 277.6827 66.3091)"><tspan x="0" y="0" style="font-family:'UniversLTStd-LightCn'; font-size:7.56px;">Upper</tspan><tspan x="19.754" y="0" style="font-family:'UniversLTStd-LightCn'; font-size:7.56px;"> </tspan><tspan x="21.522" y="0" style="font-family:'UniversLTStd-LightCn'; font-size:7.56px;">V</tspan><tspan x="25.462" y="0" style="font-family:'UniversLTStd-LightCn'; font-size:7.56px;">erandah</tspan><tspan x="51.664" y="0" style="font-family:'UniversLTStd-LightCn'; font-size:7.56px;"> </tspan><tspan x="53.433" y="0" style="font-family:'UniversLTStd-LightCn'; font-size:7.56px;">Deck</tspan></text>
<text transform="matrix(1 0 0 1 277.6827 74.9497)"><tspan x="0" y="0" style="font-family:'UniversLTStd-LightCn'; font-size:7.56px;">V</tspan><tspan x="3.939" y="0" style="font-family:'UniversLTStd-LightCn'; font-size:7.56px;">erandah</tspan><tspan x="30.142" y="0" style="font-family:'UniversLTStd-LightCn'; font-size:7.56px;"> </tspan><tspan x="31.91" y="0" style="font-family:'UniversLTStd-LightCn'; font-size:7.56px;">Deck</tspan></text>
<text transform="matrix(1 0 0 1 277.6827 83.5903)"><tspan x="0" y="0" style="font-family:'UniversLTStd-LightCn'; font-size:7.56px;">Upper</tspan><tspan x="19.754" y="0" style="font-family:'UniversLTStd-LightCn'; font-size:7.56px;"> </tspan><tspan x="21.522" y="0" style="font-family:'UniversLTStd-LightCn'; font-size:7.56px;">Promenade</tspan><tspan x="58.15" y="0" style="font-family:'UniversLTStd-LightCn'; font-size:7.56px;"> </tspan><tspan x="59.92" y="0" style="font-family:'UniversLTStd-LightCn'; font-size:7.56px;">Deck</tspan></text>
<text transform="matrix(1 0 0 1 277.6827 92.2319)"><tspan x="0" y="0" style="font-family:'UniversLTStd-LightCn'; font-size:7.56px;">Promenade</tspan><tspan x="36.628" y="0" style="font-family:'UniversLTStd-LightCn'; font-size:7.56px;"> </tspan><tspan x="38.396" y="0" style="font-family:'UniversLTStd-LightCn'; font-size:7.56px;">Deck</tspan></text>
<text transform="matrix(1 0 0 1 277.6827 100.8726)"><tspan x="0" y="0" style="font-family:'UniversLTStd-LightCn'; font-size:7.56px;">Lower</tspan><tspan x="19.542" y="0" style="font-family:'UniversLTStd-LightCn'; font-size:7.56px;"> </tspan><tspan x="21.312" y="0" style="font-family:'UniversLTStd-LightCn'; font-size:7.56px;">Promenade</tspan><tspan x="57.939" y="0" style="font-family:'UniversLTStd-LightCn'; font-size:7.56px;"> </tspan><tspan x="59.708" y="0" style="font-family:'UniversLTStd-LightCn'; font-size:7.56px;">Deck</tspan></text>
<text transform="matrix(1 0 0 1 277.6827 109.5142)"><tspan x="0" y="0" style="font-family:'UniversLTStd-LightCn'; font-size:7.56px;">Main</tspan><tspan x="15.687" y="0" style="font-family:'UniversLTStd-LightCn'; font-size:7.56px;"> </tspan><tspan x="17.456" y="0" style="font-family:'UniversLTStd-LightCn'; font-size:7.56px;">Deck</tspan></text>
</svg>
