<?xml version="1.0" encoding="utf-8"?>
<!-- Generator: Adobe Illustrator 19.1.0, SVG Export Plug-In . SVG Version: 6.00 Build 0)  -->
<svg version="1.1" id="Layer_1" xmlns="http://www.w3.org/2000/svg" xmlns:xlink="http://www.w3.org/1999/xlink" x="0px" y="0px"
	 viewBox="-118 334 375 125" style="enable-background:new -118 334 375 125;" xml:space="preserve">
<style type="text/css">
	.st0{fill:none;stroke:#000000;stroke-width:0.747;stroke-miterlimit:3.864;}
	.st1{fill:none;stroke:#000000;stroke-width:0.758;stroke-miterlimit:3.864;}
	.st2{fill:none;stroke:#000000;stroke-width:0.299;stroke-miterlimit:3.864;}
	.st3{fill:none;stroke:#000000;stroke-width:0.498;stroke-miterlimit:3.864;}
	.st4{fill:none;stroke:#000000;stroke-width:0.248;stroke-miterlimit:3.864;}
	.st5{fill:none;stroke:#000000;stroke-width:0.383;stroke-miterlimit:3.864;}
	.st6{fill:none;stroke:#000000;stroke-width:0.253;stroke-miterlimit:3.864;}
	.st7{fill:none;stroke:#000000;stroke-width:0.746;stroke-miterlimit:3.864;}
	.st8{fill:#FFFFFF;}
	.st9{font-family:'Univers';}
	.st10{font-size:7.56px;}
</style>
<path class="st0" d="M82.71,423.56c0.41,0,0.75,0.35,0.75,0.77v1c0,0.43-0.34,0.77-0.75,0.77l-120.62,0c-0.41,0-0.75-0.35-0.75-0.77
	v-1c0-0.43,0.34-0.77,0.75-0.77L82.71,423.56z"/>
<path class="st0" d="M-92.61,422.05v1.16l1.97,7.83l-1.25,5.03c1.85,0.16,14.29,0.13,13.22,7.29h209.23c3.31,0,7.22,0.11,9.94-3.26
	c1.25-1.55,0.65-3.45-1.06-3.45c-1.5,0-3.13,0.06-4.47,0.19c-0.88,0.08-0.8-0.78-0.5-1.26c0.47-0.74,17.75-13.09,17.75-13.09v-0.45
	H-92.61z"/>
<path class="st0" d="M-49.28,423.68h7.41c0.39,0,0.7,0.31,0.7,0.7v0.9c0,0.39-0.31,0.7-0.7,0.7h-7.41c-0.38,0-0.7-0.31-0.7-0.7v-0.9
	C-49.97,423.99-49.66,423.68-49.28,423.68z"/>
<path class="st0" d="M-58.75,423.68h7.41c0.39,0,0.7,0.31,0.7,0.7v0.9c0,0.39-0.31,0.7-0.7,0.7h-7.41c-0.38,0-0.7-0.31-0.7-0.7v-0.9
	C-59.45,423.99-59.14,423.68-58.75,423.68z"/>
<path class="st0" d="M-68.23,423.68h7.41c0.39,0,0.7,0.31,0.7,0.7v0.9c0,0.39-0.31,0.7-0.7,0.7h-7.41c-0.38,0-0.7-0.31-0.7-0.7v-0.9
	C-68.93,423.99-68.61,423.68-68.23,423.68z"/>
<path class="st0" d="M-77.71,423.68h7.41c0.39,0,0.7,0.31,0.7,0.7v0.9c0,0.39-0.31,0.7-0.7,0.7h-7.41c-0.38,0-0.7-0.31-0.7-0.7v-0.9
	C-78.4,423.99-78.09,423.68-77.71,423.68z"/>
<path class="st0" d="M-87.18,423.68h7.41c0.39,0,0.7,0.31,0.7,0.7v0.9c0,0.39-0.31,0.7-0.7,0.7h-7.41c-0.39,0-0.7-0.31-0.7-0.7v-0.9
	C-87.88,423.99-87.57,423.68-87.18,423.68z"/>
<line class="st0" x1="112.75" y1="408.64" x2="-60.16" y2="408.64"/>
<line class="st0" x1="-85.02" y1="410.67" x2="120.31" y2="410.67"/>
<rect x="127.66" y="430.11" class="st1" width="2.61" height="1.74"/>
<line class="st2" x1="-18.72" y1="392.85" x2="-26.84" y2="392.85"/>
<line class="st2" x1="-18.72" y1="393.46" x2="-26.84" y2="393.46"/>
<line class="st2" x1="-18.72" y1="394.07" x2="-26.84" y2="394.07"/>
<line class="st2" x1="-23.64" y1="394.68" x2="-26.85" y2="394.68"/>
<line class="st2" x1="-18.72" y1="394.68" x2="-19.28" y2="394.68"/>
<line class="st2" x1="-23.81" y1="395.29" x2="-26.85" y2="395.29"/>
<line class="st2" x1="-18.72" y1="395.29" x2="-19.28" y2="395.29"/>
<line class="st2" x1="-23.98" y1="395.89" x2="-26.84" y2="395.89"/>
<line class="st2" x1="-18.72" y1="395.89" x2="-19.28" y2="395.89"/>
<line class="st2" x1="-24.15" y1="396.5" x2="-26.85" y2="396.5"/>
<line class="st2" x1="-18.72" y1="396.5" x2="-19.28" y2="396.5"/>
<line class="st2" x1="-24.32" y1="397.11" x2="-26.85" y2="397.11"/>
<line class="st2" x1="-18.72" y1="397.11" x2="-19.28" y2="397.11"/>
<line class="st2" x1="-24.49" y1="397.72" x2="-26.85" y2="397.72"/>
<line class="st2" x1="-18.72" y1="397.72" x2="-19.28" y2="397.72"/>
<line class="st2" x1="-24.66" y1="398.33" x2="-26.84" y2="398.33"/>
<line class="st2" x1="-18.72" y1="398.33" x2="-19.28" y2="398.33"/>
<line class="st2" x1="-24.82" y1="398.94" x2="-26.85" y2="398.94"/>
<line class="st2" x1="-18.72" y1="398.94" x2="-19.28" y2="398.94"/>
<line class="st2" x1="-24.99" y1="399.55" x2="-26.85" y2="399.55"/>
<line class="st2" x1="-18.72" y1="399.55" x2="-19.28" y2="399.55"/>
<line class="st2" x1="-25.16" y1="400.16" x2="-26.85" y2="400.16"/>
<line class="st2" x1="-18.72" y1="400.16" x2="-19.28" y2="400.16"/>
<line class="st2" x1="-25.33" y1="400.77" x2="-26.84" y2="400.77"/>
<line class="st2" x1="-18.72" y1="400.77" x2="-19.28" y2="400.77"/>
<line class="st2" x1="-25.5" y1="401.37" x2="-26.85" y2="401.37"/>
<line class="st2" x1="-18.72" y1="401.37" x2="-19.28" y2="401.37"/>
<line class="st2" x1="-25.67" y1="401.98" x2="-26.85" y2="401.98"/>
<line class="st2" x1="-18.72" y1="401.98" x2="-19.28" y2="401.98"/>
<line class="st2" x1="-25.84" y1="402.59" x2="-26.85" y2="402.59"/>
<line class="st2" x1="-18.72" y1="402.59" x2="-19.28" y2="402.59"/>
<path class="st2" d="M-24.19,398.75c0-1.09,0.64-1.97,1.44-1.97c0.79,0,1.44,0.88,1.44,1.97c0,1.08-0.64,1.97-1.44,1.97
	C-23.54,400.72-24.19,399.84-24.19,398.75z"/>
<line class="st2" x1="-14.28" y1="392.85" x2="-6.15" y2="392.85"/>
<line class="st2" x1="-14.28" y1="393.46" x2="-6.15" y2="393.46"/>
<line class="st2" x1="-14.28" y1="394.07" x2="-6.15" y2="394.07"/>
<line class="st2" x1="-9.35" y1="394.68" x2="-6.15" y2="394.68"/>
<line class="st2" x1="-14.28" y1="394.68" x2="-13.72" y2="394.68"/>
<line class="st2" x1="-9.18" y1="395.29" x2="-6.15" y2="395.29"/>
<line class="st2" x1="-14.28" y1="395.29" x2="-13.72" y2="395.29"/>
<line class="st2" x1="-9.02" y1="395.89" x2="-6.15" y2="395.89"/>
<line class="st2" x1="-14.28" y1="395.89" x2="-13.72" y2="395.89"/>
<line class="st2" x1="-8.85" y1="396.5" x2="-6.15" y2="396.5"/>
<line class="st2" x1="-14.28" y1="396.5" x2="-13.72" y2="396.5"/>
<line class="st2" x1="-8.68" y1="397.11" x2="-6.15" y2="397.11"/>
<line class="st2" x1="-14.28" y1="397.11" x2="-13.72" y2="397.11"/>
<line class="st2" x1="-8.51" y1="397.72" x2="-6.15" y2="397.72"/>
<line class="st2" x1="-14.28" y1="397.72" x2="-13.72" y2="397.72"/>
<line class="st2" x1="-8.34" y1="398.33" x2="-6.15" y2="398.33"/>
<line class="st2" x1="-14.28" y1="398.33" x2="-13.72" y2="398.33"/>
<line class="st2" x1="-8.17" y1="398.94" x2="-6.15" y2="398.94"/>
<line class="st2" x1="-14.28" y1="398.94" x2="-13.72" y2="398.94"/>
<line class="st2" x1="-8" y1="399.55" x2="-6.15" y2="399.55"/>
<line class="st2" x1="-14.28" y1="399.55" x2="-13.72" y2="399.55"/>
<line class="st2" x1="-7.84" y1="400.16" x2="-6.15" y2="400.16"/>
<line class="st2" x1="-14.28" y1="400.16" x2="-13.72" y2="400.16"/>
<line class="st2" x1="-7.67" y1="400.77" x2="-6.15" y2="400.77"/>
<line class="st2" x1="-14.28" y1="400.77" x2="-13.72" y2="400.77"/>
<line class="st2" x1="-7.5" y1="401.37" x2="-6.15" y2="401.37"/>
<line class="st2" x1="-14.28" y1="401.37" x2="-13.72" y2="401.37"/>
<line class="st2" x1="-7.33" y1="401.98" x2="-6.15" y2="401.98"/>
<line class="st2" x1="-14.28" y1="401.98" x2="-13.72" y2="401.98"/>
<line class="st2" x1="-7.16" y1="402.59" x2="-6.15" y2="402.59"/>
<line class="st2" x1="-14.28" y1="402.59" x2="-13.72" y2="402.59"/>
<path class="st2" d="M-11.68,398.75c0-1.09,0.64-1.97,1.44-1.97c0.79,0,1.44,0.88,1.44,1.97c0,1.08-0.64,1.97-1.44,1.97
	C-11.04,400.72-11.68,399.84-11.68,398.75z"/>
<polyline class="st3" points="-60.16,408.64 -56.94,406.68 -37.03,406.68 -35.66,405.61 10.1,405.61 "/>
<line class="st3" x1="112.75" y1="407.42" x2="112.75" y2="408.64"/>
<line class="st3" x1="-58.1" y1="407.42" x2="61.42" y2="407.42"/>
<polyline class="st0" points="111.72,405.94 62.99,405.94 61.42,406.64 61.42,407.42 "/>
<polyline class="st0" points="64.02,405.94 64.02,402.65 95.7,402.65 96.25,403.55 "/>
<polyline class="st4" points="93.96,402.61 92.99,400.68 86.15,400.68 86.15,402.68 "/>
<line class="st2" x1="85.52" y1="397.46" x2="88.59" y2="397.46"/>
<rect x="10.17" y="405.03" class="st3" width="9.94" height="2.39"/>
<polyline class="st3" points="26.42,407.4 26.42,405.07 -51.94,405.07 -51.94,406.64 "/>
<rect x="-51.94" y="404.29" class="st3" width="8.69" height="0.78"/>
<rect x="-43.25" y="403.16" class="st0" width="39.13" height="1.9"/>
<rect x="-4.12" y="404.29" class="st3" width="11.75" height="0.78"/>
<rect x="7.63" y="403.56" class="st3" width="5.47" height="1.5"/>
<rect x="13.1" y="404.29" class="st3" width="13.31" height="0.78"/>
<rect x="26.42" y="406.64" class="st3" width="35" height="0.78"/>
<path class="st3" d="M13.6,403.18c0-0.68,0.66-1.23,1.48-1.23c0.82,0,1.48,0.55,1.48,1.23c0,0.46-0.31,0.87-0.76,1.08h-1.43
	C13.91,404.05,13.6,403.64,13.6,403.18z"/>
<polyline class="st4" points="18.38,404.29 18.26,396.29 18.12,396.29 17.98,404.26 "/>
<line class="st5" x1="99.55" y1="404.74" x2="156.62" y2="355.42"/>
<path d="M98.96,404.74c0-0.33,0.26-0.59,0.59-0.59c0.32,0,0.59,0.26,0.59,0.59c0,0.32-0.26,0.59-0.59,0.59
	C99.23,405.33,98.96,405.07,98.96,404.74"/>
<line class="st5" x1="99.55" y1="407.21" x2="156.75" y2="364.08"/>
<path d="M98.9,407.21c0-0.32,0.26-0.59,0.59-0.59c0.32,0,0.59,0.27,0.59,0.59c0,0.33-0.26,0.59-0.59,0.59
	C99.16,407.8,98.9,407.53,98.9,407.21"/>
<line class="st5" x1="99.55" y1="409.68" x2="156.75" y2="372.5"/>
<path d="M98.96,409.68c0-0.32,0.26-0.59,0.59-0.59c0.32,0,0.59,0.26,0.59,0.59s-0.26,0.59-0.59,0.59
	C99.23,410.27,98.96,410.01,98.96,409.68"/>
<line class="st5" x1="99.55" y1="411.73" x2="156.75" y2="381.43"/>
<path d="M98.96,411.73c0-0.33,0.26-0.59,0.59-0.59c0.32,0,0.59,0.26,0.59,0.59c0,0.32-0.26,0.59-0.59,0.59
	C99.23,412.32,98.96,412.06,98.96,411.73"/>
<line class="st5" x1="99.55" y1="414.01" x2="156.75" y2="389.85"/>
<path d="M98.96,414.01c0-0.33,0.26-0.59,0.59-0.59c0.32,0,0.59,0.26,0.59,0.59c0,0.32-0.26,0.59-0.59,0.59
	C99.23,414.6,98.96,414.33,98.96,414.01"/>
<line class="st5" x1="99.55" y1="416.41" x2="156.75" y2="398.66"/>
<path d="M98.96,416.41c0-0.33,0.26-0.59,0.59-0.59c0.32,0,0.59,0.26,0.59,0.59c0,0.33-0.26,0.59-0.59,0.59
	C99.23,417,98.96,416.74,98.96,416.41"/>
<line class="st5" x1="99.55" y1="419" x2="156.75" y2="407.21"/>
<path d="M98.96,419c0-0.33,0.26-0.59,0.59-0.59c0.32,0,0.59,0.26,0.59,0.59c0,0.32-0.26,0.59-0.59,0.59
	C99.23,419.59,98.96,419.33,98.96,419"/>
<line class="st5" x1="99.55" y1="421.15" x2="156.75" y2="415.88"/>
<path d="M98.96,421.15c0-0.33,0.26-0.59,0.59-0.59c0.32,0,0.59,0.26,0.59,0.59c0,0.32-0.26,0.59-0.59,0.59
	C99.23,421.74,98.96,421.48,98.96,421.15"/>
<line class="st5" x1="99.55" y1="424.69" x2="156.75" y2="424.3"/>
<path d="M98.96,424.69c0-0.33,0.26-0.59,0.59-0.59c0.32,0,0.59,0.26,0.59,0.59c0,0.32-0.26,0.59-0.59,0.59
	C99.23,425.28,98.96,425.02,98.96,424.69"/>
<line class="st5" x1="99.55" y1="428.74" x2="156.5" y2="433.26"/>
<path d="M98.96,428.74c0-0.33,0.26-0.59,0.59-0.59c0.32,0,0.59,0.26,0.59,0.59c0,0.32-0.26,0.59-0.59,0.59
	C99.23,429.33,98.96,429.06,98.96,428.74"/>
<line class="st5" x1="99.55" y1="431.27" x2="156.37" y2="441.04"/>
<path d="M98.96,431.27c0-0.33,0.26-0.59,0.59-0.59c0.32,0,0.59,0.26,0.59,0.59c0,0.32-0.26,0.59-0.59,0.59
	C99.23,431.86,98.96,431.59,98.96,431.27"/>
<line class="st2" x1="86.15" y1="400.04" x2="88.59" y2="400.04"/>
<line class="st2" x1="86.15" y1="399.38" x2="88.59" y2="399.38"/>
<line class="st2" x1="86.15" y1="398.73" x2="88.59" y2="398.73"/>
<line class="st2" x1="86.15" y1="398.08" x2="88.59" y2="398.08"/>
<polyline class="st0" points="-92.43,422.05 -92.43,420.72 -93.27,420.72 -92.09,419.98 -92.09,419.27 -90.47,419.27 -90.47,418.37 
	-91.91,418.37 -90.67,417.6 -90.67,416.89 -89.02,416.89 -89.02,415.98 -89.93,415.98 -88.74,415.21 -88.74,414.5 -86.79,414.5 
	-86.79,413.6 -87.61,413.6 -86.41,412.83 -86.41,412.11 -85.26,412.08 -85.26,410.71 -84.84,410.71 -86.04,409.96 -86.04,409.25 
	-61.11,409.25 -56.94,406.68 "/>
<line class="st0" x1="-86.41" y1="412.83" x2="119.57" y2="412.83"/>
<line class="st0" x1="-88.74" y1="415.23" x2="122.75" y2="415.23"/>
<line class="st0" x1="-90.67" y1="417.63" x2="125.94" y2="417.63"/>
<line class="st0" x1="-92.09" y1="420.03" x2="129.25" y2="420.03"/>
<polyline class="st0" points="86.15,402.68 86.15,400.68 92.99,400.68 93.96,402.65 95.68,402.65 96.25,403.58 106.93,403.58 
	108.91,404.97 110.69,404.97 113.12,407.1 112.75,407.42 112.75,408.64 112.25,409.45 116.63,409.45 120.63,410.03 119.59,412.83 
	132.01,421.94 "/>
<line class="st0" x1="-91.38" y1="427.48" x2="145.26" y2="427.48"/>
<line class="st0" x1="-90.89" y1="430.01" x2="141.63" y2="430.01"/>
<polyline class="st6" points="150.13,422.05 150.13,416.44 150.07,416.44 150,418.56 149.34,422.05 "/>
<line class="st0" x1="-91.92" y1="435.79" x2="134.35" y2="435.79"/>
<line class="st7" x1="-90.68" y1="432.67" x2="138.57" y2="432.67"/>
<rect x="159.68" y="351.63" class="st8" width="69.75" height="96.59"/>
<g id="Decks">
	<g id="D10">
		<text transform="matrix(1 0 0 1 159.6827 357.103)" class="st9 st10">Sports</text>
		<text transform="matrix(1 0 0 1 179.8297 357.103)" class="st9 st10"> </text>
		<text transform="matrix(1 0 0 1 181.5987 357.103)" class="st9 st10">Deck</text>
	</g>
	<g id="D09">
		<text transform="matrix(1 0 0 1 159.6827 365.7446)" class="st9 st10">Observation</text>
		<text transform="matrix(1 0 0 1 198.3437 365.7446)" class="st9 st10"> </text>
		<text transform="matrix(1 0 0 1 200.1127 365.7446)" class="st9 st10">Deck</text>
	</g>
	<g id="D00">
		<g id="Promenade_1_">
			<text transform="matrix(1 0 0 1 159.6827 374.3853)" class="st9 st10">Lido</text>
			<text transform="matrix(1 0 0 1 173.4337 374.3853)" class="st9 st10"> </text>
			<text transform="matrix(1 0 0 1 175.2037 374.3853)" class="st9 st10">Deck</text>
		</g>
	</g>
	<g id="D08">
		<text transform="matrix(1 0 0 1 159.6827 383.0269)" class="st9 st10">Navigation</text>
		<text transform="matrix(1 0 0 1 194.1937 383.0269)" class="st9 st10"> </text>
		<text transform="matrix(1 0 0 1 195.9617 383.0269)" class="st9 st10">Deck</text>
	</g>
	<g id="D07">
		<text transform="matrix(1 0 0 1 159.6827 391.6675)" class="st9 st10">Rotterdam</text>
		<text transform="matrix(1 0 0 1 193.3767 391.6675)" class="st9 st10"> </text>
		<text transform="matrix(1 0 0 1 195.1467 391.6675)" class="st9 st10">Deck</text>
	</g>
	<g id="D06">
		<text transform="matrix(1 0 0 1 159.6827 400.3091)" class="st9 st10">Upper</text>
		<text transform="matrix(1 0 0 1 179.4367 400.3091)" class="st9 st10"> </text>
		<text transform="matrix(1 0 0 1 181.2047 400.3091)" class="st9 st10">V</text>
		<text transform="matrix(1 0 0 1 185.1447 400.3091)" class="st9 st10">erandah</text>
		<text transform="matrix(1 0 0 1 211.3467 400.3091)" class="st9 st10"> </text>
		<text transform="matrix(1 0 0 1 213.1157 400.3091)" class="st9 st10">Deck</text>
	</g>
	<g id="D05">
		<text transform="matrix(1 0 0 1 159.6827 408.9497)" class="st9 st10">V</text>
		<text transform="matrix(1 0 0 1 163.6217 408.9497)" class="st9 st10">erandah</text>
		<text transform="matrix(1 0 0 1 189.8247 408.9497)" class="st9 st10"> </text>
		<text transform="matrix(1 0 0 1 191.5927 408.9497)" class="st9 st10">Deck</text>
	</g>
	<g id="D04">
		<text transform="matrix(1 0 0 1 159.6827 417.5903)" class="st9 st10">Upper</text>
		<text transform="matrix(1 0 0 1 179.4367 417.5903)" class="st9 st10"> </text>
		<text transform="matrix(1 0 0 1 181.2047 417.5903)" class="st9 st10">Promenade</text>
		<text transform="matrix(1 0 0 1 217.8327 417.5903)" class="st9 st10"> </text>
		<text transform="matrix(1 0 0 1 219.6027 417.5903)" class="st9 st10">Deck</text>
	</g>
	<g id="D03">
		<text transform="matrix(1 0 0 1 159.6827 426.2319)" class="st9 st10">Promenade</text>
		<text transform="matrix(1 0 0 1 196.3107 426.2319)" class="st9 st10"> </text>
		<text transform="matrix(1 0 0 1 198.0787 426.2319)" class="st9 st10">Deck</text>
	</g>
	<g id="D02">
		<text transform="matrix(1 0 0 1 159.6827 434.8726)" class="st9 st10">Lower</text>
		<text transform="matrix(1 0 0 1 179.2247 434.8726)" class="st9 st10"> </text>
		<text transform="matrix(1 0 0 1 180.9947 434.8726)" class="st9 st10">Promenade</text>
		<text transform="matrix(1 0 0 1 217.6217 434.8726)" class="st9 st10"> </text>
		<text transform="matrix(1 0 0 1 219.3907 434.8726)" class="st9 st10">Deck</text>
	</g>
	<g id="D01">
		<text transform="matrix(1 0 0 1 159.6827 443.5142)" class="st9 st10">Main</text>
		<text transform="matrix(1 0 0 1 175.3697 443.5142)" class="st9 st10"> </text>
		<text transform="matrix(1 0 0 1 177.1387 443.5142)" class="st9 st10">Deck</text>
	</g>
</g>
</svg>
